<svg width="24" height="25" viewBox="0 0 24 25" fill="none" xmlns="http://www.w3.org/2000/svg">
<path d="M9.56994 19.0702C9.37994 19.0702 9.18994 19.0002 9.03994 18.8502L2.96994 12.7802C2.67994 12.4902 2.67994 12.0102 2.96994 11.7202L9.03994 5.65024C9.32994 5.36024 9.80994 5.36024 10.0999 5.65024C10.3899 5.94024 10.3899 6.42024 10.0999 6.71024L4.55994 12.2502L10.0999 17.7902C10.3899 18.0802 10.3899 18.5602 10.0999 18.8502C9.95994 19.0002 9.75994 19.0702 9.56994 19.0702Z" fill="#292D32"/>
<path d="M20.4999 13.0002H3.66992C3.25992 13.0002 2.91992 12.6602 2.91992 12.2502C2.91992 11.8402 3.25992 11.5002 3.66992 11.5002H20.4999C20.9099 11.5002 21.2499 11.8402 21.2499 12.2502C21.2499 12.6602 20.9099 13.0002 20.4999 13.0002Z" fill="#292D32"/>
</svg>
