<svg width="24" height="24" viewBox="0 0 24 24" fill="none" xmlns="http://www.w3.org/2000/svg">
<path d="M19.24 5.8303H18.84L15.46 2.4503C15.19 2.1803 14.75 2.1803 14.47 2.4503C14.2 2.7203 14.2 3.1603 14.47 3.4403L16.86 5.8303H7.14L9.53 3.4403C9.8 3.1703 9.8 2.7303 9.53 2.4503C9.26 2.1803 8.82 2.1803 8.54 2.4503L5.17 5.8303H4.77C3.87 5.8303 2 5.8303 2 8.3903C2 9.3603 2.2 10.0003 2.62 10.4203C2.86 10.6703 3.15 10.8003 3.46 10.8703C3.75 10.9403 4.06 10.9503 4.36 10.9503H19.64C19.95 10.9503 20.24 10.9303 20.52 10.8703C21.36 10.6703 22 10.0703 22 8.3903C22 5.8303 20.13 5.8303 19.24 5.8303Z" fill="#a1a3a8"/>
<path d="M19.0499 12.2502H4.86991C4.24991 12.2502 3.77991 12.8002 3.87991 13.4102L4.71991 18.5502C4.99991 20.2702 5.74991 22.2502 9.07991 22.2502H14.6899C18.0599 22.2502 18.6599 20.5602 19.0199 18.6702L20.0299 13.4402C20.1499 12.8202 19.6799 12.2502 19.0499 12.2502ZM10.6099 18.7002C10.6099 19.0902 10.2999 19.4002 9.91991 19.4002C9.52991 19.4002 9.21991 19.0902 9.21991 18.7002V15.4002C9.21991 15.0202 9.52991 14.7002 9.91991 14.7002C10.2999 14.7002 10.6099 15.0202 10.6099 15.4002V18.7002ZM14.8899 18.7002C14.8899 19.0902 14.5799 19.4002 14.1899 19.4002C13.8099 19.4002 13.4899 19.0902 13.4899 18.7002V15.4002C13.4899 15.0202 13.8099 14.7002 14.1899 14.7002C14.5799 14.7002 14.8899 15.0202 14.8899 15.4002V18.7002Z" fill="#a1a3a8"/>
</svg>
