<svg width="24" height="25" viewBox="0 0 24 25" fill="none" xmlns="http://www.w3.org/2000/svg">
<path d="M22 9.50024H2C1.59 9.50024 1.25 9.16024 1.25 8.75024C1.25 8.34024 1.59 8.00024 2 8.00024H22C22.41 8.00024 22.75 8.34024 22.75 8.75024C22.75 9.16024 22.41 9.50024 22 9.50024Z" fill="#292D32"/>
<path d="M8 17.5002H6C5.59 17.5002 5.25 17.1602 5.25 16.7502C5.25 16.3402 5.59 16.0002 6 16.0002H8C8.41 16.0002 8.75 16.3402 8.75 16.7502C8.75 17.1602 8.41 17.5002 8 17.5002Z" fill="#292D32"/>
<path d="M14.5 17.5002H10.5C10.09 17.5002 9.75 17.1602 9.75 16.7502C9.75 16.3402 10.09 16.0002 10.5 16.0002H14.5C14.91 16.0002 15.25 16.3402 15.25 16.7502C15.25 17.1602 14.91 17.5002 14.5 17.5002Z" fill="#292D32"/>
<path d="M17.56 21.5002H6.44C2.46 21.5002 1.25 20.3002 1.25 16.3602V8.14024C1.25 4.20024 2.46 3.00024 6.44 3.00024H17.55C21.53 3.00024 22.74 4.20024 22.74 8.14024V16.3502C22.75 20.3002 21.54 21.5002 17.56 21.5002ZM6.44 4.50024C3.3 4.50024 2.75 5.04024 2.75 8.14024V16.3502C2.75 19.4502 3.3 19.9902 6.44 19.9902H17.55C20.69 19.9902 21.24 19.4502 21.24 16.3502V8.14024C21.24 5.04024 20.69 4.50024 17.55 4.50024H6.44Z" fill="#292D32"/>
</svg>
