<svg width="24" height="24" viewBox="0 0 24 24" fill="none" xmlns="http://www.w3.org/2000/svg">
<path d="M12 23.0002C6.07 23.0002 1.25 18.1802 1.25 12.2502C1.25 6.32024 6.07 1.50024 12 1.50024C17.93 1.50024 22.75 6.32024 22.75 12.2502C22.75 18.1802 17.93 23.0002 12 23.0002ZM12 3.00024C6.9 3.00024 2.75 7.15024 2.75 12.2502C2.75 17.3502 6.9 21.5002 12 21.5002C17.1 21.5002 21.25 17.3502 21.25 12.2502C21.25 7.15024 17.1 3.00024 12 3.00024Z" fill="#a1a3a8"/>
<path d="M15.0002 16.2502C14.4402 16.2502 13.9902 15.8002 13.9902 15.2502C13.9902 14.7002 14.4402 14.2502 14.9902 14.2502C15.5402 14.2502 15.9902 14.7002 15.9902 15.2502C15.9902 15.8002 15.5502 16.2502 15.0002 16.2502Z" fill="#a1a3a8"/>
<path d="M9.01001 10.2502C8.45001 10.2502 8 9.80024 8 9.25024C8 8.70024 8.45 8.25024 9 8.25024C9.55 8.25024 10 8.70024 10 9.25024C10 9.80024 9.56001 10.2502 9.01001 10.2502Z" fill="#a1a3a8"/>
<path d="M8.99997 16.0002C8.80997 16.0002 8.61994 15.9302 8.46994 15.7802C8.17994 15.4902 8.17994 15.0102 8.46994 14.7202L14.4699 8.72019C14.7599 8.43019 15.24 8.43019 15.53 8.72019C15.82 9.01019 15.82 9.49024 15.53 9.78024L9.53 15.7802C9.38 15.9302 9.18997 16.0002 8.99997 16.0002Z" fill="#a1a3a8"/>
</svg>
