<svg width="24" height="25" viewBox="0 0 24 25" fill="none" xmlns="http://www.w3.org/2000/svg">
<path d="M15 23.0002H9C3.57 23.0002 1.25 20.6802 1.25 15.2502V9.25024C1.25 3.82024 3.57 1.50024 9 1.50024H15C20.43 1.50024 22.75 3.82024 22.75 9.25024V15.2502C22.75 20.6802 20.43 23.0002 15 23.0002ZM9 3.00024C4.39 3.00024 2.75 4.64024 2.75 9.25024V15.2502C2.75 19.8602 4.39 21.5002 9 21.5002H15C19.61 21.5002 21.25 19.8602 21.25 15.2502V9.25024C21.25 4.64024 19.61 3.00024 15 3.00024H9Z" fill="#292D32"/>
<path d="M12 16.5002C9.66 16.5002 7.75 14.5902 7.75 12.2502C7.75 9.91024 9.66 8.00024 12 8.00024C14.34 8.00024 16.25 9.91024 16.25 12.2502C16.25 14.5902 14.34 16.5002 12 16.5002ZM12 9.50024C10.48 9.50024 9.25 10.7302 9.25 12.2502C9.25 13.7702 10.48 15.0002 12 15.0002C13.52 15.0002 14.75 13.7702 14.75 12.2502C14.75 10.7302 13.52 9.50024 12 9.50024Z" fill="#292D32"/>
<path d="M17 7.75027C16.87 7.75027 16.74 7.72027 16.62 7.67027C16.5 7.62027 16.39 7.55027 16.29 7.46027C16.2 7.36027 16.12 7.25027 16.07 7.13027C16.02 7.01027 16 6.88027 16 6.75027C16 6.62027 16.02 6.49027 16.07 6.37027C16.13 6.24027 16.2 6.14027 16.29 6.04027C16.34 6.00027 16.39 5.95027 16.44 5.92027C16.5 5.88027 16.56 5.85027 16.62 5.83027C16.68 5.80027 16.74 5.78027 16.81 5.77027C17.13 5.70027 17.47 5.81027 17.71 6.04027C17.8 6.14027 17.87 6.24027 17.92 6.37027C17.97 6.49027 18 6.62027 18 6.75027C18 6.88027 17.97 7.01027 17.92 7.13027C17.87 7.25027 17.8 7.36027 17.71 7.46027C17.61 7.55027 17.5 7.62027 17.38 7.67027C17.26 7.72027 17.13 7.75027 17 7.75027Z" fill="#292D32"/>
</svg>
