<svg width="24" height="25" viewBox="0 0 24 25" fill="none" xmlns="http://www.w3.org/2000/svg">
<path d="M11.9999 14.4202C9.86988 14.4202 8.12988 12.6902 8.12988 10.5502C8.12988 8.41019 9.86988 6.69019 11.9999 6.69019C14.1299 6.69019 15.8699 8.42019 15.8699 10.5602C15.8699 12.7002 14.1299 14.4202 11.9999 14.4202ZM11.9999 8.19019C10.6999 8.19019 9.62988 9.25019 9.62988 10.5602C9.62988 11.8702 10.6899 12.9302 11.9999 12.9302C13.3099 12.9302 14.3699 11.8702 14.3699 10.5602C14.3699 9.25019 13.2999 8.19019 11.9999 8.19019Z" fill="#292D32"/>
<path d="M11.9999 23.0102C10.5199 23.0102 9.02993 22.4502 7.86993 21.3402C4.91993 18.5002 1.65993 13.9702 2.88993 8.58024C3.99993 3.69024 8.26993 1.50024 11.9999 1.50024C11.9999 1.50024 11.9999 1.50024 12.0099 1.50024C15.7399 1.50024 20.0099 3.69024 21.1199 8.59024C22.3399 13.9802 19.0799 18.5002 16.1299 21.3402C14.9699 22.4502 13.4799 23.0102 11.9999 23.0102ZM11.9999 3.00024C9.08993 3.00024 5.34993 4.55024 4.35993 8.91024C3.27993 13.6202 6.23993 17.6802 8.91993 20.2502C10.6499 21.9202 13.3599 21.9202 15.0899 20.2502C17.7599 17.6802 20.7199 13.6202 19.6599 8.91024C18.6599 4.55024 14.9099 3.00024 11.9999 3.00024Z" fill="#292D32"/>
</svg>
