<svg  width="24" height="24"  viewBox="0 0 24 24" fill="none" xmlns="http://www.w3.org/2000/svg">
<path d="M15.24 22.5202H15.11C10.67 22.5202 8.53002 20.7702 8.16002 16.8502C8.12002 16.4402 8.42002 16.0702 8.84002 16.0302C9.25002 15.9902 9.62002 16.3002 9.66002 16.7102C9.95002 19.8502 11.43 21.0202 15.12 21.0202H15.25C19.32 21.0202 20.76 19.5802 20.76 15.5102V8.99022C20.76 4.92022 19.32 3.48022 15.25 3.48022H15.12C11.41 3.48022 9.93002 4.67022 9.66002 7.87022C9.61002 8.28022 9.27002 8.59022 8.84002 8.55022C8.42002 8.52022 8.12001 8.15022 8.15001 7.74022C8.49001 3.76022 10.64 1.98022 15.11 1.98022H15.24C20.15 1.98022 22.25 4.08022 22.25 8.99022V15.5102C22.25 20.4202 20.15 22.5202 15.24 22.5202Z" fill="#424750"/>
<path d="M14.88 13.0002H2C1.59 13.0002 1.25 12.6602 1.25 12.2502C1.25 11.8402 1.59 11.5002 2 11.5002H14.88C15.29 11.5002 15.63 11.8402 15.63 12.2502C15.63 12.6602 15.3 13.0002 14.88 13.0002Z" fill="#292D32"/>
<path d="M12.6501 16.3502C12.4601 16.3502 12.2701 16.2802 12.1201 16.1302C11.8301 15.8402 11.8301 15.3602 12.1201 15.0702L14.9401 12.2502L12.1201 9.43021C11.8301 9.14021 11.8301 8.66021 12.1201 8.37021C12.4101 8.08021 12.8901 8.08021 13.1801 8.37021L16.5301 11.7202C16.8201 12.0102 16.8201 12.4902 16.5301 12.7802L13.1801 16.1302C13.0301 16.2802 12.8401 16.3502 12.6501 16.3502Z" fill="#424750"/>
</svg>
