<svg width="24" height="24" viewBox="0 0 24 24" fill="none" xmlns="http://www.w3.org/2000/svg">
<path d="M15.24 22.5202H15.11C10.67 22.5202 8.53002 20.7702 8.16002 16.8502C8.12002 16.4402 8.42002 16.0702 8.84002 16.0302C9.24002 15.9902 9.62002 16.3002 9.66002 16.7102C9.95002 19.8502 11.43 21.0202 15.12 21.0202H15.25C19.32 21.0202 20.76 19.5802 20.76 15.5102V8.99022C20.76 4.92022 19.32 3.48022 15.25 3.48022H15.12C11.41 3.48022 9.93002 4.67022 9.66002 7.87022C9.61002 8.28022 9.26002 8.59022 8.84002 8.55022C8.42002 8.52022 8.12001 8.15022 8.15001 7.74022C8.49001 3.76022 10.64 1.98022 15.11 1.98022H15.24C20.15 1.98022 22.25 4.08022 22.25 8.99022V15.5102C22.25 20.4202 20.15 22.5202 15.24 22.5202Z" fill="#424750"/>
<path d="M15.0001 13.0002H3.62012C3.21012 13.0002 2.87012 12.6602 2.87012 12.2502C2.87012 11.8402 3.21012 11.5002 3.62012 11.5002H15.0001C15.4101 11.5002 15.7501 11.8402 15.7501 12.2502C15.7501 12.6602 15.4101 13.0002 15.0001 13.0002Z" fill="#292D32"/>
<path d="M5.84994 16.3502C5.65994 16.3502 5.46994 16.2802 5.31994 16.1302L1.96994 12.7802C1.67994 12.4902 1.67994 12.0102 1.96994 11.7202L5.31994 8.37021C5.60994 8.08021 6.08994 8.08021 6.37994 8.37021C6.66994 8.66021 6.66994 9.14021 6.37994 9.43021L3.55994 12.2502L6.37994 15.0702C6.66994 15.3602 6.66994 15.8402 6.37994 16.1302C6.23994 16.2802 6.03994 16.3502 5.84994 16.3502Z" fill="#424750"/>
</svg>
