<svg width="24" height="25" viewBox="0 0 24 25" fill="none" xmlns="http://www.w3.org/2000/svg">
<path d="M21 8.00024H3C2.59 8.00024 2.25 7.66024 2.25 7.25024C2.25 6.84024 2.59 6.50024 3 6.50024H21C21.41 6.50024 21.75 6.84024 21.75 7.25024C21.75 7.66024 21.41 8.00024 21 8.00024Z" fill="#424750"/>
<path d="M21 13.0002H3C2.59 13.0002 2.25 12.6602 2.25 12.2502C2.25 11.8402 2.59 11.5002 3 11.5002H21C21.41 11.5002 21.75 11.8402 21.75 12.2502C21.75 12.6602 21.41 13.0002 21 13.0002Z" fill="#292D32"/>
<path d="M21 18.0002H3C2.59 18.0002 2.25 17.6602 2.25 17.2502C2.25 16.8402 2.59 16.5002 3 16.5002H21C21.41 16.5002 21.75 16.8402 21.75 17.2502C21.75 17.6602 21.41 18.0002 21 18.0002Z" fill="#424750"/>
</svg>
