<svg width="24" height="25" viewBox="0 0 24 25" fill="none" xmlns="http://www.w3.org/2000/svg">
<path d="M5 15.0002C3.48 15.0002 2.25 13.7702 2.25 12.2502C2.25 10.7302 3.48 9.50024 5 9.50024C6.52 9.50024 7.75 10.7302 7.75 12.2502C7.75 13.7702 6.52 15.0002 5 15.0002ZM5 11.0002C4.31 11.0002 3.75 11.5602 3.75 12.2502C3.75 12.9402 4.31 13.5002 5 13.5002C5.69 13.5002 6.25 12.9402 6.25 12.2502C6.25 11.5602 5.69 11.0002 5 11.0002Z" fill="#292D32"/>
<path d="M19 15.0002C17.48 15.0002 16.25 13.7702 16.25 12.2502C16.25 10.7302 17.48 9.50024 19 9.50024C20.52 9.50024 21.75 10.7302 21.75 12.2502C21.75 13.7702 20.52 15.0002 19 15.0002ZM19 11.0002C18.31 11.0002 17.75 11.5602 17.75 12.2502C17.75 12.9402 18.31 13.5002 19 13.5002C19.69 13.5002 20.25 12.9402 20.25 12.2502C20.25 11.5602 19.69 11.0002 19 11.0002Z" fill="#292D32"/>
<path d="M12 15.0002C10.48 15.0002 9.25 13.7702 9.25 12.2502C9.25 10.7302 10.48 9.50024 12 9.50024C13.52 9.50024 14.75 10.7302 14.75 12.2502C14.75 13.7702 13.52 15.0002 12 15.0002ZM12 11.0002C11.31 11.0002 10.75 11.5602 10.75 12.2502C10.75 12.9402 11.31 13.5002 12 13.5002C12.69 13.5002 13.25 12.9402 13.25 12.2502C13.25 11.5602 12.69 11.0002 12 11.0002Z" fill="#292D32"/>
</svg>
