<svg width="24" height="25" viewBox="0 0 24 25" fill="none" xmlns="http://www.w3.org/2000/svg">
<path d="M15 23.0002H9C3.57 23.0002 1.25 20.6802 1.25 15.2502V9.25024C1.25 3.82024 3.57 1.50024 9 1.50024H15C20.43 1.50024 22.75 3.82024 22.75 9.25024V15.2502C22.75 20.6802 20.43 23.0002 15 23.0002ZM9 3.00024C4.39 3.00024 2.75 4.64024 2.75 9.25024V15.2502C2.75 19.8602 4.39 21.5002 9 21.5002H15C19.61 21.5002 21.25 19.8602 21.25 15.2502V9.25024C21.25 4.64024 19.61 3.00024 15 3.00024H9Z" fill="#292D32"/>
<path d="M8.56976 16.2701C8.37976 16.2701 8.18977 16.2001 8.03977 16.0501C7.74977 15.7601 7.74977 15.2801 8.03977 14.9901L14.5898 8.44016C14.8798 8.15016 15.3598 8.15016 15.6498 8.44016C15.9398 8.73016 15.9398 9.21015 15.6498 9.50015L9.09976 16.0501C8.94976 16.2001 8.75976 16.2701 8.56976 16.2701Z" fill="#292D32"/>
<path d="M8.98001 11.3604C7.89001 11.3604 7 10.4704 7 9.3804C7 8.2904 7.89001 7.40039 8.98001 7.40039C10.07 7.40039 10.96 8.2904 10.96 9.3804C10.96 10.4704 10.07 11.3604 8.98001 11.3604ZM8.98001 8.9104C8.72001 8.9104 8.5 9.12041 8.5 9.39041C8.5 9.66041 8.71001 9.87039 8.98001 9.87039C9.25001 9.87039 9.45999 9.66041 9.45999 9.39041C9.45999 9.12041 9.24001 8.9104 8.98001 8.9104Z" fill="#292D32"/>
<path d="M15.52 17.0904C14.43 17.0904 13.54 16.2004 13.54 15.1104C13.54 14.0204 14.43 13.1304 15.52 13.1304C16.61 13.1304 17.5 14.0204 17.5 15.1104C17.5 16.2004 16.61 17.0904 15.52 17.0904ZM15.52 14.6404C15.26 14.6404 15.04 14.8504 15.04 15.1204C15.04 15.3904 15.25 15.6004 15.52 15.6004C15.79 15.6004 16 15.3904 16 15.1204C16 14.8504 15.79 14.6404 15.52 14.6404Z" fill="#292D32"/>
</svg>
