<svg width="22" height="22" viewBox="0 0 22 22" fill="none" xmlns="http://www.w3.org/2000/svg">
<path d="M11.5 22.0002C5.85 22.0002 1.25 17.4002 1.25 11.7502C1.25 6.10024 5.85 1.50024 11.5 1.50024C17.15 1.50024 21.75 6.10024 21.75 11.7502C21.75 17.4002 17.15 22.0002 11.5 22.0002ZM11.5 3.00024C6.67 3.00024 2.75 6.93024 2.75 11.7502C2.75 16.5702 6.67 20.5002 11.5 20.5002C16.33 20.5002 20.25 16.5702 20.25 11.7502C20.25 6.93024 16.33 3.00024 11.5 3.00024Z" fill="#a1a3a8"/>
<path d="M21.9999 23.0002C21.8099 23.0002 21.6199 22.9302 21.4699 22.7802L19.4699 20.7802C19.1799 20.4902 19.1799 20.0102 19.4699 19.7202C19.7599 19.4302 20.2399 19.4302 20.5299 19.7202L22.5299 21.7202C22.8199 22.0102 22.8199 22.4902 22.5299 22.7802C22.3799 22.9302 22.1899 23.0002 21.9999 23.0002Z" fill="#a1a3a8"/>
</svg>
