<svg width="24" height="25" viewBox="0 0 24 25" fill="none" xmlns="http://www.w3.org/2000/svg">
<path d="M12 23.0002C6.07 23.0002 1.25 18.1802 1.25 12.2502C1.25 10.7602 1.55001 9.33025 2.14001 7.97025C2.31001 7.59025 2.75 7.42025 3.13 7.58025C3.51 7.75025 3.68002 8.19025 3.52002 8.57025C3.02002 9.73025 2.76001 10.9702 2.76001 12.2502C2.76001 17.3502 6.91001 21.5002 12.01 21.5002C17.11 21.5002 21.26 17.3502 21.26 12.2502C21.26 7.15024 17.11 3.00024 12.01 3.00024C10.72 3.00024 9.45998 3.26024 8.28998 3.78024C7.91998 3.95024 7.46999 3.78024 7.29999 3.40024C7.12999 3.02024 7.29999 2.58025 7.67999 2.41025C9.04999 1.81025 10.5 1.50024 12.01 1.50024C17.94 1.50024 22.76 6.32024 22.76 12.2502C22.76 18.1802 17.93 23.0002 12 23.0002Z" fill="black"/>
<path d="M16 17.2502H11.75C8.99 17.2502 6.75 15.0102 6.75 12.2502C6.75 9.49024 8.99 7.25024 11.75 7.25024C14.51 7.25024 16.75 9.49024 16.75 12.2502V16.5002C16.75 16.9102 16.41 17.2502 16 17.2502ZM11.75 8.75024C9.82 8.75024 8.25 10.3202 8.25 12.2502C8.25 14.1802 9.82 15.7502 11.75 15.7502H15.25V12.2502C15.25 10.3202 13.68 8.75024 11.75 8.75024Z" fill="black"/>
<path d="M5 7.50024C3.76 7.50024 2.75 6.49024 2.75 5.25024C2.75 4.01024 3.76 3.00024 5 3.00024C6.24 3.00024 7.25 4.01024 7.25 5.25024C7.25 6.49024 6.24 7.50024 5 7.50024ZM5 4.50024C4.59 4.50024 4.25 4.84024 4.25 5.25024C4.25 5.66024 4.59 6.00024 5 6.00024C5.41 6.00024 5.75 5.66024 5.75 5.25024C5.75 4.84024 5.41 4.50024 5 4.50024Z" fill="black"/>
</svg>
