    <svg width="24" height="24" viewBox="0 0 24 24" fill="none" xmlns="http://www.w3.org/2000/svg">
    <path d="M17 21.0002H7C2.59 21.0002 1.25 19.6602 1.25 15.2502V14.7502C1.25 14.3402 1.59 14.0002 2 14.0002C2.96 14.0002 3.75 13.2102 3.75 12.2502C3.75 11.2902 2.96 10.5002 2 10.5002C1.59 10.5002 1.25 10.1602 1.25 9.75024V9.25024C1.25 4.84024 2.59 3.50024 7 3.50024H17C21.41 3.50024 22.75 4.84024 22.75 9.25024V10.2502C22.75 10.6602 22.41 11.0002 22 11.0002C21.04 11.0002 20.25 11.7902 20.25 12.7502C20.25 13.7102 21.04 14.5002 22 14.5002C22.41 14.5002 22.75 14.8402 22.75 15.2502C22.75 19.6602 21.41 21.0002 17 21.0002ZM2.75 15.4102C2.77 18.8502 3.48 19.5002 7 19.5002H17C20.34 19.5002 21.15 18.9102 21.24 15.9102C19.81 15.5702 18.75 14.2802 18.75 12.7502C18.75 11.2202 19.82 9.93024 21.25 9.59024V9.25024C21.25 5.68024 20.58 5.00024 17 5.00024H7C3.48 5.00024 2.77 5.65024 2.75 9.09024C4.18 9.43024 5.25 10.7202 5.25 12.2502C5.25 13.7802 4.18 15.0702 2.75 15.4102Z" fill="#292D32"/>
    <path d="M10 7.50024C9.59 7.50024 9.25 7.16024 9.25 6.75024V4.25024C9.25 3.84024 9.59 3.50024 10 3.50024C10.41 3.50024 10.75 3.84024 10.75 4.25024V6.75024C10.75 7.16024 10.41 7.50024 10 7.50024Z" fill="#292D32"/>
    <path d="M10 14.8303C9.59 14.8303 9.25 14.4903 9.25 14.0803V10.4103C9.25 10.0003 9.59 9.66028 10 9.66028C10.41 9.66028 10.75 10.0003 10.75 10.4103V14.0803C10.75 14.5003 10.41 14.8303 10 14.8303Z" fill="#292D32"/>
    <path d="M10 21.0002C9.59 21.0002 9.25 20.6602 9.25 20.2502V17.7502C9.25 17.3402 9.59 17.0002 10 17.0002C10.41 17.0002 10.75 17.3402 10.75 17.7502V20.2502C10.75 20.6602 10.41 21.0002 10 21.0002Z" fill="#292D32"/>
    </svg>
